<svg width="426" height="104" viewBox="0 0 426 104" fill="none" xmlns="http://www.w3.org/2000/svg">
<path d="M141.471 88.7128C137.716 88.7128 134.597 88.3727 132.113 87.6927C129.659 87.0127 127.678 86.1701 126.17 85.1648C124.692 84.13 123.554 83.11 122.755 82.1047C122.489 81.7203 122.253 81.3508 122.046 80.996C121.839 80.6412 121.691 80.242 121.602 79.7985C121.484 79.2072 121.366 78.4385 121.247 77.4924C121.129 76.5167 121.114 75.3932 121.203 74.1218C121.233 73.5896 121.336 73.2201 121.513 73.0131C121.72 72.7766 122.06 72.5992 122.533 72.4809C123.391 72.274 124.5 72.0966 125.86 71.9487C127.249 71.7713 128.24 71.6826 128.831 71.6826C129.452 71.6826 129.955 71.8009 130.339 72.0374C130.723 72.274 131.182 72.6731 131.714 73.2349C132.305 73.8557 133.325 74.654 134.774 75.6297C136.223 76.5758 138.455 77.0489 141.471 77.0489C144.368 77.0489 146.556 76.4428 148.034 75.2306C149.513 74.0184 150.252 72.3331 150.252 70.1748C150.252 69.0217 149.897 67.9425 149.187 66.9373C148.507 65.9024 147.251 64.8824 145.418 63.8772C143.585 62.8423 140.968 61.7632 137.568 60.6397C131.95 58.7474 127.9 56.3969 125.416 53.5881C122.933 50.7793 121.691 46.8766 121.691 41.8799C121.691 37.7406 122.696 34.2814 124.707 31.5022C126.717 28.723 129.496 26.6238 133.044 25.2046C136.592 23.7854 140.687 23.0758 145.329 23.0758C148.907 23.0758 151.863 23.5045 154.199 24.3619C156.564 25.1898 158.397 26.1359 159.698 27.2003C160.999 28.2351 161.842 29.0777 162.226 29.7282C162.463 30.1126 162.61 30.4082 162.67 30.6152C162.758 30.7926 162.817 31.0439 162.847 31.3691C162.936 32.2857 162.965 33.3057 162.936 34.4292C162.906 35.5527 162.803 36.8241 162.625 38.2433C162.537 38.7163 162.374 39.0416 162.137 39.2189C161.93 39.3668 161.605 39.4407 161.162 39.4407C158.294 39.4998 156.076 39.352 154.509 38.9972C153.888 38.8494 153.475 38.7015 153.268 38.5537C153.061 38.4059 152.794 38.1693 152.469 37.8441C151.996 37.2824 151.242 36.6319 150.207 35.8928C149.202 35.124 147.576 34.7397 145.329 34.7397C142.225 34.7397 140.022 35.4493 138.721 36.8684C137.42 38.258 136.77 39.8251 136.77 41.5695C136.77 43.6391 137.731 45.2652 139.652 46.4479C141.574 47.601 144.605 48.9167 148.744 50.395C152.203 51.6072 155.175 52.9229 157.658 54.3421C160.142 55.7612 162.034 57.5796 163.335 59.797C164.665 62.0145 165.331 64.9415 165.331 68.5782C165.331 73.1018 164.281 76.8567 162.182 79.8429C160.112 82.8291 157.274 85.0613 153.667 86.5396C150.089 87.9884 146.024 88.7128 141.471 88.7128Z" fill="#2C254F"/>
<path d="M212.43 62.1919C212.843 60.5953 213.287 59.0283 213.76 57.4909C214.263 55.9238 214.869 54.1794 215.578 52.2576C216.199 50.5428 216.953 48.5766 217.84 46.3592C218.727 44.1122 219.658 41.8356 220.634 39.5294C221.639 37.2232 222.615 35.0797 223.561 33.0987C224.507 31.1178 225.365 29.536 226.133 28.3534C227.08 26.9046 228.1 25.8255 229.194 25.1159C230.317 24.4063 231.958 24.0515 234.116 24.0515H239.926C241.463 24.0515 242.75 24.288 243.784 24.7611C244.849 25.2046 245.603 26.2837 246.046 27.9986C246.371 29.2699 246.682 31.1326 246.978 33.5866C247.273 36.0406 247.525 39.4407 247.732 43.7869C247.938 48.1332 248.101 53.7212 248.219 60.551C248.338 67.3512 248.397 75.7628 248.397 85.7857C248.397 86.3179 248.219 86.7614 247.865 87.1162C247.51 87.471 247.081 87.6484 246.578 87.6484H236.467C235.964 87.6484 235.535 87.471 235.181 87.1162C234.826 86.7614 234.648 86.3031 234.648 85.7414C234.648 77.9359 234.648 71.313 234.648 65.8729C234.648 60.4327 234.634 55.9238 234.604 52.3463C234.575 48.7688 234.53 45.9305 234.471 43.8313C234.442 41.7025 234.382 40.0616 234.294 38.9085H234.028C232.461 42.5156 230.79 46.5366 229.016 50.9715C227.242 55.3769 225.513 59.9301 223.827 64.6311C222.142 69.3025 220.634 73.8705 219.304 78.335C218.919 79.6655 218.431 80.5968 217.84 81.129C217.278 81.6316 215.977 81.883 213.937 81.883H208.837C207.093 81.883 205.925 81.6612 205.334 81.2177C204.772 80.7742 204.284 79.8133 203.87 78.335C202.894 74.9645 201.815 71.4017 200.633 67.6468C199.45 63.8919 198.223 60.2109 196.952 56.6039C195.71 52.9672 194.498 49.6262 193.315 46.5809C192.162 43.506 191.127 40.9486 190.211 38.9085H189.944C189.708 42.3973 189.501 46.6401 189.324 51.6367C189.146 56.6334 188.998 62.0588 188.88 67.9129C188.791 73.767 188.732 79.7394 188.703 85.83C188.703 86.3622 188.525 86.8057 188.17 87.1605C187.816 87.4858 187.387 87.6484 186.884 87.6484H177.793C177.29 87.6484 176.861 87.471 176.507 87.1162C176.152 86.7614 175.974 86.3031 175.974 85.7414C176.004 69.9826 176.314 57.4022 176.906 48.0001C177.527 38.5981 178.192 32.3005 178.901 29.1073C179.374 27.0081 180.202 25.6481 181.385 25.0272C182.597 24.3767 183.972 24.0515 185.509 24.0515H192.694C194.32 24.0515 195.503 24.3472 196.242 24.9385C197.011 25.5002 197.942 26.609 199.036 28.2647C199.686 29.2404 200.455 30.7039 201.342 32.6553C202.259 34.6066 203.205 36.7797 204.181 39.1746C205.156 41.5399 206.073 43.8904 206.93 46.2261C207.817 48.5323 208.542 50.5428 209.103 52.2576C209.695 54.002 210.242 55.7021 210.744 57.3578C211.247 58.9839 211.69 60.5953 212.075 62.1919H212.43Z" fill="#2C254F"/>
<path d="M298.201 62.1919C298.615 60.5953 299.058 59.0283 299.531 57.4909C300.034 55.9238 300.64 54.1794 301.35 52.2576C301.971 50.5428 302.725 48.5766 303.612 46.3592C304.499 44.1122 305.43 41.8356 306.406 39.5294C307.411 37.2232 308.387 35.0797 309.333 33.0987C310.279 31.1178 311.136 29.536 311.905 28.3534C312.851 26.9046 313.871 25.8255 314.965 25.1159C316.089 24.4063 317.729 24.0515 319.888 24.0515H325.698C327.235 24.0515 328.521 24.288 329.556 24.7611C330.62 25.2046 331.374 26.2837 331.818 27.9986C332.143 29.2699 332.453 31.1326 332.749 33.5866C333.045 36.0406 333.296 39.4407 333.503 43.7869C333.71 48.1332 333.873 53.7212 333.991 60.551C334.109 67.3512 334.168 75.7628 334.168 85.7857C334.168 86.3179 333.991 86.7614 333.636 87.1162C333.281 87.471 332.853 87.6484 332.35 87.6484H322.238C321.736 87.6484 321.307 87.471 320.952 87.1162C320.597 86.7614 320.42 86.3031 320.42 85.7414C320.42 77.9359 320.42 71.313 320.42 65.8729C320.42 60.4327 320.405 55.9238 320.376 52.3463C320.346 48.7688 320.302 45.9305 320.243 43.8313C320.213 41.7025 320.154 40.0616 320.065 38.9085H319.799C318.232 42.5156 316.562 46.5366 314.788 50.9715C313.014 55.3769 311.284 59.9301 309.599 64.6311C307.914 69.3025 306.406 73.8705 305.075 78.335C304.691 79.6655 304.203 80.5968 303.612 81.129C303.05 81.6316 301.749 81.883 299.709 81.883H294.609C292.864 81.883 291.696 81.6612 291.105 81.2177C290.543 80.7742 290.056 79.8133 289.642 78.335C288.666 74.9645 287.587 71.4017 286.404 67.6468C285.221 63.8919 283.994 60.2109 282.723 56.6039C281.481 52.9672 280.269 49.6262 279.086 46.5809C277.933 43.506 276.899 40.9486 275.982 38.9085H275.716C275.479 42.3973 275.272 46.6401 275.095 51.6367C274.918 56.6334 274.77 62.0588 274.652 67.9129C274.563 73.767 274.504 79.7394 274.474 85.83C274.474 86.3622 274.297 86.8057 273.942 87.1605C273.587 87.4858 273.158 87.6484 272.656 87.6484H263.564C263.062 87.6484 262.633 87.471 262.278 87.1162C261.923 86.7614 261.746 86.3031 261.746 85.7414C261.775 69.9826 262.086 57.4022 262.677 48.0001C263.298 38.5981 263.963 32.3005 264.673 29.1073C265.146 27.0081 265.974 25.6481 267.157 25.0272C268.369 24.3767 269.744 24.0515 271.281 24.0515H278.466C280.092 24.0515 281.274 24.3472 282.014 24.9385C282.782 25.5002 283.714 26.609 284.808 28.2647C285.458 29.2404 286.227 30.7039 287.114 32.6553C288.03 34.6066 288.976 36.7797 289.952 39.1746C290.928 41.5399 291.844 43.8904 292.702 46.2261C293.589 48.5323 294.313 50.5428 294.875 52.2576C295.466 54.002 296.013 55.7021 296.516 57.3578C297.018 58.9839 297.462 60.5953 297.846 62.1919H298.201Z" fill="#2C254F"/>
<path d="M362.286 85.2979C362.286 86.1848 362.094 86.8057 361.709 87.1605C361.354 87.4858 360.734 87.6484 359.847 87.6484H350.4C349.513 87.6484 348.877 87.4858 348.493 87.1605C348.138 86.8057 347.961 86.1848 347.961 85.2979V31.1474C347.961 30.29 348.109 29.6395 348.404 29.196C349.735 27.2446 351.598 25.1898 353.992 23.0315C354.436 22.6767 354.82 22.4993 355.146 22.4993C355.5 22.4993 355.87 22.6767 356.254 23.0315C357.555 24.155 358.649 25.2341 359.536 26.269C360.423 27.2742 361.192 28.2499 361.842 29.196C362.138 29.6691 362.286 30.3195 362.286 31.1474V85.2979Z" fill="#2C254F"/>
<path d="M399.672 62.7684C395.149 65.252 391.955 68.046 390.093 71.1504C388.26 74.2549 387.343 78.1576 387.343 82.8586V85.2979C387.343 86.1848 387.166 86.8057 386.811 87.1605C386.456 87.4858 385.85 87.6484 384.993 87.6484H375.768C374.94 87.6484 374.334 87.4858 373.95 87.1605C373.595 86.8057 373.417 86.1848 373.417 85.2979V82.8586C373.417 78.4533 373.905 74.7279 374.881 71.6826C375.857 68.6077 377.468 65.8877 379.715 63.5224C381.992 61.1571 385.081 58.8361 388.984 56.5595C384.549 54.0168 381.06 50.9567 378.518 47.3792C376.004 43.7721 374.748 39.7955 374.748 35.4493V31.1474C374.748 30.29 374.896 29.6395 375.191 29.196C376.522 27.2446 378.385 25.1898 380.779 23.0315C381.223 22.6767 381.622 22.4993 381.977 22.4993C382.332 22.4993 382.701 22.6767 383.086 23.0315C384.386 24.155 385.48 25.2341 386.367 26.269C387.254 27.2742 388.023 28.2499 388.674 29.196C388.969 29.6691 389.117 30.3195 389.117 31.1474V35.4493C389.117 37.8737 390.093 40.4312 392.044 43.1217C394.025 45.8122 396.73 48.0445 400.16 49.8184C403.56 48.074 405.999 45.9748 407.478 43.5208C408.956 41.0668 409.695 38.3763 409.695 35.4493V31.1474C409.695 30.29 409.843 29.6395 410.139 29.196C411.41 27.2742 413.214 25.2194 415.549 23.0315C415.993 22.6767 416.362 22.4993 416.658 22.4993C417.013 22.4993 417.382 22.6767 417.767 23.0315C419.008 24.155 420.058 25.2341 420.915 26.269C421.802 27.2742 422.556 28.2499 423.177 29.196C423.473 29.6691 423.621 30.3195 423.621 31.1474V35.4493C423.621 40.3277 422.423 44.4374 420.029 47.7784C417.663 51.1193 414.633 53.8394 410.937 55.9386C414.426 58.0083 417.264 60.2405 419.452 62.6354C421.64 65.0007 423.251 67.8095 424.286 71.0617C425.321 74.2845 425.838 78.2168 425.838 82.8586V85.2979C425.838 86.1848 425.646 86.8057 425.262 87.1605C424.907 87.4858 424.286 87.6484 423.399 87.6484H413.953C413.066 87.6484 412.43 87.4858 412.046 87.1605C411.691 86.8057 411.513 86.1848 411.513 85.2979V82.8586C411.513 79.6951 411.218 76.9454 410.626 74.6097C410.065 72.274 408.926 70.1748 407.212 68.3121C405.526 66.4198 403.013 64.572 399.672 62.7684Z" fill="#2C254F"/>
<path d="M103.543 34.2827C103.543 38.0956 102.528 41.8523 100.606 45.1464L97.1536 51.0652C92.1346 59.6694 90.5602 69.763 92.7211 79.4866L92.8167 79.9163C94.1013 85.6961 92.7132 91.659 89.0089 96.2769C85.3046 100.895 79.7845 103.543 73.8643 103.543H73.7846C69.5264 103.543 65.3226 102.113 61.9473 99.5171L51.8064 91.7164C45.0799 86.5423 36.2332 84.979 28.1409 87.5344L27.878 87.6175C21.2955 89.6959 14.3274 88.5482 8.75991 84.4678C3.19305 80.3875 0 74.0888 0 67.1864C0 60.4783 3.20438 54.0702 8.57163 50.0447L8.79146 49.8799C13.335 46.4723 15.6585 40.8629 14.8552 35.2405L12.9866 22.1603C12.1902 16.5855 13.8495 10.9485 17.5392 6.69411C21.2288 2.43994 26.5746 0 32.2062 0C36.1738 0 39.9952 1.19378 43.2572 3.45211L55.9711 12.2539C55.9736 12.2555 55.9922 12.2687 55.9946 12.2703C61.2031 15.8688 67.8465 16.6492 73.7577 14.3504L74.1703 14.1899C80.8078 11.6088 88.2792 12.4683 94.1567 16.4888C100.034 20.5096 103.543 27.1615 103.543 34.2827Z" fill="url(#paint0_linear_26_34)"/>
<path d="M63.9587 30.8813C59.0024 30.8813 54.5941 33.2713 51.8247 36.9588C49.0554 33.2713 44.6471 30.8813 39.6908 30.8813C31.3274 30.8813 24.5233 37.6855 24.5233 46.0488C24.5233 54.4121 31.3274 61.2163 39.6908 61.2163C44.6471 61.2163 49.0554 58.8263 51.8247 55.1388C54.5941 58.8263 59.0024 61.2163 63.9587 61.2163C72.322 61.2163 79.1262 54.4121 79.1262 46.0488C79.1262 37.6855 72.322 30.8813 63.9587 30.8813ZM39.6908 49.0823C38.0155 49.0823 36.6573 47.7241 36.6573 46.0488C36.6573 44.3735 38.0155 43.0153 39.6908 43.0153C41.3661 43.0153 42.7243 44.3735 42.7243 46.0488C42.7243 47.7241 41.3661 49.0823 39.6908 49.0823ZM63.9587 49.0823C62.2834 49.0823 60.9252 47.7241 60.9252 46.0488C60.9252 44.3735 62.2834 43.0153 63.9587 43.0153C65.634 43.0153 66.9922 44.3735 66.9922 46.0488C66.9922 47.7241 65.634 49.0823 63.9587 49.0823Z" fill="url(#paint1_linear_26_34)"/>
<path d="M51.7716 72.6618C57.6265 75.3604 61.9068 74.4542 71.2995 68.5746" stroke="#FFD2D9" stroke-width="5" stroke-linecap="round"/>
<defs>
<linearGradient id="paint0_linear_26_34" x1="51.7716" y1="103.543" x2="51.7716" y2="0" gradientUnits="userSpaceOnUse">
<stop stop-color="#FD3A84"/>
<stop offset="1" stop-color="#FFA68D"/>
</linearGradient>
<linearGradient id="paint1_linear_26_34" x1="51.8247" y1="61.2163" x2="51.8247" y2="30.8813" gradientUnits="userSpaceOnUse">
<stop stop-color="#FFC8D1"/>
<stop offset="1" stop-color="#FFF6F7"/>
</linearGradient>
</defs>
</svg>
